# xmcd
#
# Track frame offsets: 
#        150
#        834
#        10702
#        17279
#        31710
#        34985
#        37953
#        61082
#        74365
#        79941
#        87201
#        99945
#        106790
#        107395
#        109562
#        122649
#        123492
#        141126
#        153232
#        154748
#        155501
#        183016
#        199261
#        203854
#        220536
#        228449
#        230405
#        233908
#        252688
#        271301
#        285704
#        295465
#        308192
#        308642
#        309284
#        322899
#        329565
#
# Disc length: 4550 seconds
#
# Revision: 0
# Processed by: cddbd v1.5.2PL0 Copyright (c) Steve Scherf et al.
# Submitted via: ExactAudioCopy v0.95b4
#
DISCID=db11c425
DTITLE=The Beatles  - AB  Road - Complete Purple Chick Set v1.1 Jan.06
DTITLE=Various Artist - D5  FLAC
DYEAR=1900
DGENRE=
TTITLE0=Roll Announcement
TTITLE1=Two Of Us 6.98
TTITLE2=Two Of Us 6.99
TTITLE3=Two Of Us 6.100
TTITLE4=Frere Jacques 6.101
TTITLE5=It Ain't Me Babe 6.102
TTITLE6=Two Of Us 6.103
TTITLE7=Two Of Us 6.104
TTITLE8=Two Of Us 6.105
TTITLE9=Two Of Us 6.106
TTITLE10=Two Of Us 6.107
TTITLE11=Two Of Us 6.108
TTITLE12=When The Saints Go Marching In 6.109
TTITLE13=Loop De Loop 6.110
TTITLE14=Two Of Us 6.111
TTITLE15=Hear Me Lord 6.112
TTITLE16=Across The Universe 6.113
TTITLE17=Hear Me Lord 6.114
TTITLE18=All Things Must Pass 6.115
TTITLE19=Roll Announcement
TTITLE20=All Things Must Pass 6.116
TTITLE21=All Things Must Pass 6.117
TTITLE22=Let's Dance 6.118
TTITLE23=All Things Must Pass 6.119
TTITLE24=All Things Must Pass 6.120
TTITLE25=All Things Must Pass 6.121
TTITLE26=All Things Must Pass 6.122
TTITLE27=All Things Must Pass 6.123
TTITLE28=She Came In Through The Bathroom Window 6.124
TTITLE29=She Came In Through The Bathroom Window 6.125
TTITLE30=She Came In Through The Bathroom Window 6.126
TTITLE31=She Came In Through The Bathroom Window 6.127
TTITLE32=She Came In Through The Bathroom Window 6.128
TTITLE33=She Came In Through The Bathroom Window 6.129
TTITLE34=She Came In Through The Bathroom Window 6.130
TTITLE35=Carry That Weight 6.131
TTITLE36=Dialogue
EXTD=
EXTT0=
EXTT1=
EXTT2=
EXTT3=
EXTT4=
EXTT5=
EXTT6=
EXTT7=
EXTT8=
EXTT9=
EXTT10=
EXTT11=
EXTT12=
EXTT13=
EXTT14=
EXTT15=
EXTT16=
EXTT17=
EXTT18=
EXTT19=
EXTT20=
EXTT21=
EXTT22=
EXTT23=
EXTT24=
EXTT25=
EXTT26=
EXTT27=
EXTT28=
EXTT29=
EXTT30=
EXTT31=
EXTT32=
EXTT33=
EXTT34=
EXTT35=
EXTT36=
PLAYORDER=
